# xmcd CD database file
#
# Track frame offsets:
#	150
#	17576
#	31072
#	47681
#	62038
#	77108
#	91095
#	109526
#	127345
#	141204
#	155504
#	170246
#	184497
#	199004
#	212025
#	229387
#	243629
#	259240
#	273859
#	288734
#	305963
#
# Disc length: 4271 seconds
#
# Revision: 1
# Processed by: cddbd v1.5.2PL0 Copyright (c) Steve Scherf et al.
# Submitted via: CDex 1.70beta2
#
DISCID=4010ad15
DTITLE=Various Artist - NU COUNTRY TRAXX 187
DYEAR=2014
DGENRE=Country
TTITLE0=Carrie Underwood - Something In The Water
TTITLE1=Kenny Chesney - Til It's Gone
TTITLE2=Dierks Bentley - Say You Do
TTITLE3=The Band Perry - Gentle On My Mind
TTITLE4=Toby Keith - Drunk Americans
TTITLE5=Florida Georgia Line - Sun Daze
TTITLE6=Eric Paslay - She Don't Love You
TTITLE7=Shane Gamble - Beautiful Work
TTITLE8=Lady Antebellum - Freestyle
TTITLE9=Gloriana - Trouble
TTITLE10=James Carothers - I Must Be Alive
TTITLE11=Billy Currington - Don't It
TTITLE12=Cole Swindell - Ain't Worth The Whiskey
TTITLE13=Josh Abbott Band - Hangin' Around
TTITLE14=Justin Moore - This Kind Of Town
TTITLE15=Dustin Lynch - Hell Of A Night
TTITLE16=Bobby Wills - Undressed
TTITLE17=Steven Lee Olsen - Raised By A Good Time
TTITLE18=The Lovelocks - Dance
TTITLE19=Paul Brandt ft. Fresh IE - Get A Bed
TTITLE20=Jake Mathews - In Our Own Backyard
EXTD=YEAR: 2014
EXTT0=
EXTT1=
EXTT2=
EXTT3=
EXTT4=
EXTT5=
EXTT6=
EXTT7=
EXTT8=
EXTT9=
EXTT10=
EXTT11=
EXTT12=
EXTT13=
EXTT14=
EXTT15=
EXTT16=
EXTT17=
EXTT18=
EXTT19=
EXTT20=
PLAYORDER=
